<?xml version="1.0" encoding="UTF-8"?>
<svg id="Layer_1" xmlns="http://www.w3.org/2000/svg" version="1.1" viewBox="0 0 1920 1080">
  <!-- Generator: Adobe Illustrator 30.0.0, SVG Export Plug-In . SVG Version: 2.1.1 Build 123)  -->
  <defs>
    <style>
      .st0 {
        fill: #45b54d;
      }

      .st1 {
        fill: #fff;
      }
    </style>
  </defs>
  <polygon class="st1" points="645.2 578.35 780.1 578.35 790 553.27 802.38 533.47 698.42 533.47 708.32 496.34 791.24 496.34 829.6 488.91 783.81 482.73 829.6 472.82 797.42 466.64 854.35 450.07 721.93 450.07 730.6 413.42 864.25 413.42 870.44 391.14 910.04 380.01 872.92 380.01 877.87 360.2 700.89 360.2 645.2 578.35"/>
  <path class="st0" d="M988.63,389.19l.4-8.44s-18.08,10.34-36.36,22.3c-16.17,10.58-32.39,22.66-38.17,26.72-11.31,7.95-36.65,30.43-61.74,58.61-5.69,6.39-26.89,31.23-38.35,47.72-23.73,34.11-35.36,66.93-36.7,96.02-1.78,38.66,26.9,65.38,80.27,66.12,80.6,1.12,117.5-19.24,117.5-19.24,0,0-24.05,5.45-63.16,7.36-20.08.98-79.58.38-96.89-39.84-15.73-36.56,5.67-86.59,27.08-114.45,59.4-77.31,76.83-82.07,146.13-142.87Z"/>
  <path class="st0" d="M1032.49,448.13l-4.88-2.84s-8.57,2.78-18.68,7.52c-24.94,11.68-66.47,34.44-63.17,40.46h13.49c24.95-20.08,57.18-37.98,73.24-45.14Z"/>
  <path class="st0" d="M892.42,539.52s-6.77,9.12-10.8,18.89-10.94,23.09-12.93,36.89c-1.35,9.32-1.89,17.83-.04,27.55,2.15,11.29,8.2,20.93,15.87,28.81,44.59,45.82,177.27-11.49,177.27-11.49.08.28-13.76,2.91-33.4,6.97-34.58,7.15-88.29,15.4-123.81-.76-47.77-21.73-12.16-106.87-12.16-106.87Z"/>
  <g>
    <path class="st1" d="M956.05,548.63h-26.9l-2.2,11.7h30.1l-2.8,15h-48l12.7-67.4h46.5l-2.9,15h-28.6l-2,10.7h27l-2.9,15Z"/>
    <path class="st1" d="M977.14,507.93h17.8l-9.7,51.8h28.6l-2.9,15.6h-46.5l12.7-67.4Z"/>
    <path class="st1" d="M1049.94,507.93l-12.7,67.4h-17.8l12.7-67.4h17.8Z"/>
    <path class="st1" d="M1074.54,523.13h-18.7l3-15.2h55.6l-2.9,15.2h-19.2l-9.7,52.2h-17.8l9.7-52.2Z"/>
    <path class="st1" d="M1160.34,548.63h-26.9l-2.2,11.7h30.1l-2.8,15h-48l12.7-67.4h46.5l-2.9,15h-28.6l-2,10.7h27l-2.9,15Z"/>
    <path class="st1" d="M1216.84,526.73h-.2l-14.4,5.9-.3-13.9,20.9-8.4h14.1l-12.2,65h-17l9.1-48.6Z"/>
    <path class="st1" d="M1276.84,526.73h-.2l-14.4,5.9-.3-13.9,20.9-8.4h14.1l-12.2,65h-17l9.1-48.6Z"/>
  </g>
</svg>